<svg data-v-423bf9ae="" xmlns="http://www.w3.org/2000/svg" viewBox="0 0 655 90" class="iconLeft"><!----><defs data-v-423bf9ae=""><linearGradient data-v-423bf9ae="" gradientTransform="rotate(25)" id="e9906360-172d-49f3-9393-b6ad4dc90e60" x1="0%" y1="0%" x2="100%" y2="0%"><stop data-v-423bf9ae="" offset="0%" style="stop-color: rgb(184, 41, 73); stop-opacity: 1;"></stop><stop data-v-423bf9ae="" offset="100%" style="stop-color: rgb(233, 184, 76); stop-opacity: 1;"></stop></linearGradient></defs><!----><g data-v-423bf9ae="" id="b092b3df-1db2-4e7d-9ef2-42cc9a5bdb98" fill="#ffffff" transform="matrix(4.54438624786801,0,0,4.54438624786801,107.33986095220439,-1.4961230766617675)"><path d="M6.01 14L6.01 14Q5.80 14 5.71 13.80L5.71 13.80L4.09 10.16L4.09 10.16Q4.06 10.09 3.98 10.09L3.98 10.09L3.11 10.09L3.11 10.09Q3.01 10.09 3.01 10.19L3.01 10.19L3.01 13.75L3.01 13.75Q3.01 13.86 2.94 13.93L2.94 13.93L2.94 13.93Q2.87 14 2.76 14L2.76 14L0.94 14L0.94 14Q0.83 14 0.76 13.93L0.76 13.93L0.76 13.93Q0.69 13.86 0.69 13.75L0.69 13.75L0.69 4.45L0.69 4.45Q0.69 4.34 0.76 4.27L0.76 4.27L0.76 4.27Q0.83 4.20 0.94 4.20L0.94 4.20L5.01 4.20L5.01 4.20Q5.94 4.20 6.64 4.58L6.64 4.58L6.64 4.58Q7.34 4.96 7.72 5.65L7.72 5.65L7.72 5.65Q8.11 6.34 8.11 7.24L8.11 7.24L8.11 7.24Q8.11 8.16 7.65 8.85L7.65 8.85L7.65 8.85Q7.20 9.53 6.38 9.84L6.38 9.84L6.38 9.84Q6.29 9.88 6.33 9.98L6.33 9.98L8.12 13.71L8.15 13.82L8.15 13.82Q8.15 14 7.92 14L7.92 14L6.01 14ZM3.11 6.19L3.11 6.19Q3.01 6.19 3.01 6.29L3.01 6.29L3.01 8.22L3.01 8.22Q3.01 8.32 3.11 8.32L3.11 8.32L4.63 8.32L4.63 8.32Q5.15 8.32 5.47 8.03L5.47 8.03L5.47 8.03Q5.80 7.74 5.80 7.27L5.80 7.27L5.80 7.27Q5.80 6.78 5.47 6.48L5.47 6.48L5.47 6.48Q5.15 6.19 4.63 6.19L4.63 6.19L3.11 6.19ZM12.82 12.14L12.82 12.14Q13.26 12.14 13.63 12.00L13.63 12.00L13.63 12.00Q14 11.87 14.25 11.65L14.25 11.65L14.25 11.65Q14.34 11.55 14.43 11.55L14.43 11.55L14.43 11.55Q14.52 11.55 14.60 11.65L14.60 11.65L15.47 12.68L15.47 12.68Q15.55 12.78 15.55 12.87L15.55 12.87L15.55 12.87Q15.55 12.96 15.47 13.05L15.47 13.05L15.47 13.05Q14.99 13.55 14.27 13.83L14.27 13.83L14.27 13.83Q13.54 14.11 12.71 14.11L12.71 14.11L12.71 14.11Q11.76 14.11 11.03 13.77L11.03 13.77L11.03 13.77Q10.29 13.43 9.81 12.81L9.81 12.81L9.81 12.81Q9.04 11.83 9.04 10.32L9.04 10.32L9.04 10.32Q9.04 9.65 9.20 9.06L9.20 9.06L9.20 9.06Q9.51 7.97 10.40 7.30L10.40 7.30L10.40 7.30Q11.30 6.64 12.50 6.64L12.50 6.64L12.50 6.64Q13.90 6.64 14.76 7.50L14.76 7.50L14.76 7.50Q15.62 8.37 15.89 9.93L15.89 9.93L15.89 9.93Q15.95 10.32 15.97 10.78L15.97 10.78L15.97 10.78Q15.97 11.03 15.72 11.03L15.72 11.03L11.49 11.03L11.49 11.03Q11.45 11.03 11.42 11.06L11.42 11.06L11.42 11.06Q11.38 11.09 11.40 11.14L11.40 11.14L11.48 11.42L11.48 11.42Q11.62 11.76 11.97 11.95L11.97 11.95L11.97 11.95Q12.32 12.14 12.82 12.14L12.82 12.14ZM12.46 8.64L12.46 8.64Q11.75 8.64 11.49 9.32L11.49 9.32L11.49 9.32Q11.44 9.46 11.42 9.53L11.42 9.53L11.42 9.56L11.42 9.56Q11.42 9.65 11.52 9.65L11.52 9.65L13.44 9.65L13.44 9.65Q13.50 9.65 13.52 9.61L13.52 9.61L13.52 9.61Q13.54 9.58 13.52 9.53L13.52 9.53L13.47 9.35L13.47 9.35Q13.36 9.02 13.10 8.83L13.10 8.83L13.10 8.83Q12.85 8.64 12.46 8.64L12.46 8.64ZM19.95 6.65L19.95 6.65Q20.87 6.65 21.63 6.96L21.63 6.96L21.63 6.96Q22.39 7.28 22.82 7.83L22.82 7.83L22.82 7.83Q23.25 8.39 23.25 9.06L23.25 9.06L23.25 13.75L23.25 13.75Q23.25 13.86 23.18 13.93L23.18 13.93L23.18 13.93Q23.11 14 23.00 14L23.00 14L21.18 14L21.18 14Q21.07 14 21 13.93L21 13.93L21 13.93Q20.93 13.86 20.93 13.75L20.93 13.75L20.93 13.47L20.93 13.47Q20.93 13.40 20.89 13.38L20.89 13.38L20.89 13.38Q20.86 13.37 20.82 13.43L20.82 13.43L20.82 13.43Q20.26 14.11 19.01 14.11L19.01 14.11L19.01 14.11Q17.91 14.11 17.25 13.59L17.25 13.59L17.25 13.59Q16.59 13.06 16.59 12.04L16.59 12.04L16.59 12.04Q16.59 10.96 17.34 10.37L17.34 10.37L17.34 10.37Q18.09 9.79 19.50 9.79L19.50 9.79L20.83 9.79L20.83 9.79Q20.93 9.79 20.93 9.69L20.93 9.69L20.93 9.45L20.93 9.45Q20.93 9.07 20.68 8.86L20.68 8.86L20.68 8.86Q20.44 8.64 19.99 8.64L19.99 8.64L19.99 8.64Q19.67 8.64 19.44 8.74L19.44 8.74L19.44 8.74Q19.21 8.85 19.11 9.03L19.11 9.03L19.11 9.03Q19.04 9.13 18.98 9.18L18.98 9.18L18.98 9.18Q18.91 9.23 18.82 9.21L18.82 9.21L16.94 8.97L16.94 8.97Q16.69 8.95 16.72 8.78L16.72 8.78L16.72 8.78Q16.79 8.18 17.22 7.69L17.22 7.69L17.22 7.69Q17.65 7.21 18.36 6.93L18.36 6.93L18.36 6.93Q19.07 6.65 19.95 6.65L19.95 6.65ZM19.71 12.45L19.71 12.45Q20.24 12.45 20.59 12.17L20.59 12.17L20.59 12.17Q20.93 11.90 20.93 11.45L20.93 11.45L20.93 11.14L20.93 11.14Q20.93 11.05 20.83 11.05L20.83 11.05L20.02 11.05L20.02 11.05Q19.49 11.05 19.20 11.23L19.20 11.23L19.20 11.23Q18.91 11.41 18.91 11.77L18.91 11.77L18.91 11.77Q18.91 12.08 19.12 12.26L19.12 12.26L19.12 12.26Q19.33 12.45 19.71 12.45L19.71 12.45ZM27.73 14.11L27.73 14.11Q26.59 14.11 25.73 13.54L25.73 13.54L25.73 13.54Q24.86 12.96 24.50 11.96L24.50 11.96L24.50 11.96Q24.23 11.28 24.23 10.35L24.23 10.35L24.23 10.35Q24.23 9.41 24.50 8.74L24.50 8.74L24.50 8.74Q24.85 7.76 25.72 7.20L25.72 7.20L25.72 7.20Q26.59 6.65 27.73 6.65L27.73 6.65L27.73 6.65Q28.90 6.65 29.78 7.22L29.78 7.22L29.78 7.22Q30.66 7.80 30.97 8.68L30.97 8.68L30.97 8.68Q31.05 8.90 31.08 9.14L31.08 9.14L31.08 9.20L31.08 9.20Q31.08 9.38 30.86 9.42L30.86 9.42L29.08 9.69L29.01 9.70L29.01 9.70Q28.83 9.70 28.80 9.53L28.80 9.53L28.74 9.34L28.74 9.34Q28.66 9.03 28.38 8.83L28.38 8.83L28.38 8.83Q28.10 8.64 27.72 8.64L27.72 8.64L27.72 8.64Q26.98 8.64 26.74 9.30L26.74 9.30L26.74 9.30Q26.59 9.69 26.59 10.36L26.59 10.36L26.59 10.36Q26.59 10.96 26.73 11.41L26.73 11.41L26.73 11.41Q26.99 12.12 27.72 12.12L27.72 12.12L27.72 12.12Q28.08 12.12 28.34 11.94L28.34 11.94L28.34 11.94Q28.60 11.76 28.73 11.41L28.73 11.41L28.74 11.34L28.74 11.34L28.74 11.34Q28.76 11.27 28.85 11.19L28.85 11.19L28.85 11.19Q28.94 11.12 29.04 11.13L29.04 11.13L30.83 11.41L30.83 11.41Q31.08 11.45 31.04 11.69L31.04 11.69L31.04 11.69Q31.01 11.91 30.97 12.04L30.97 12.04L30.97 12.04Q30.63 13.02 29.76 13.57L29.76 13.57L29.76 13.57Q28.88 14.11 27.73 14.11L27.73 14.11ZM36.48 8.37L36.48 8.37Q36.48 8.48 36.41 8.55L36.41 8.55L36.41 8.55Q36.34 8.62 36.23 8.62L36.23 8.62L35.07 8.62L35.07 8.62Q34.97 8.62 34.97 8.72L34.97 8.72L34.97 11.17L34.97 11.17Q34.97 11.97 35.62 11.97L35.62 11.97L36.05 11.97L36.05 11.97Q36.16 11.97 36.23 12.04L36.23 12.04L36.23 12.04Q36.30 12.11 36.30 12.22L36.30 12.22L36.30 13.69L36.30 13.69Q36.30 13.92 36.06 13.94L36.06 13.94L36.06 13.94Q35.42 13.97 35.15 13.97L35.15 13.97L35.15 13.97Q33.94 13.97 33.35 13.58L33.35 13.58L33.35 13.58Q32.76 13.19 32.75 12.12L32.75 12.12L32.75 8.72L32.75 8.72Q32.75 8.62 32.65 8.62L32.65 8.62L31.96 8.62L31.96 8.62Q31.85 8.62 31.78 8.55L31.78 8.55L31.78 8.55Q31.71 8.48 31.71 8.37L31.71 8.37L31.71 7.01L31.71 7.01Q31.71 6.90 31.78 6.83L31.78 6.83L31.78 6.83Q31.85 6.76 31.96 6.76L31.96 6.76L32.65 6.76L32.65 6.76Q32.75 6.76 32.75 6.66L32.75 6.66L32.75 5.08L32.75 5.08Q32.75 4.97 32.82 4.90L32.82 4.90L32.82 4.90Q32.89 4.83 33.00 4.83L33.00 4.83L34.72 4.83L34.72 4.83Q34.83 4.83 34.90 4.90L34.90 4.90L34.90 4.90Q34.97 4.97 34.97 5.08L34.97 5.08L34.97 6.66L34.97 6.66Q34.97 6.76 35.07 6.76L35.07 6.76L36.23 6.76L36.23 6.76Q36.34 6.76 36.41 6.83L36.41 6.83L36.41 6.83Q36.48 6.90 36.48 7.01L36.48 7.01L36.48 8.37ZM44.46 5.94L44.46 5.94Q44.46 6.05 44.39 6.12L44.39 6.12L44.39 6.12Q44.32 6.19 44.21 6.19L44.21 6.19L39.94 6.19L39.94 6.19Q39.84 6.19 39.84 6.29L39.84 6.29L39.84 7.95L39.84 7.95Q39.84 8.05 39.94 8.05L39.94 8.05L42.64 8.05L42.64 8.05Q42.76 8.05 42.83 8.12L42.83 8.12L42.83 8.12Q42.90 8.19 42.90 8.30L42.90 8.30L42.90 9.77L42.90 9.77Q42.90 9.88 42.83 9.95L42.83 9.95L42.83 9.95Q42.76 10.02 42.64 10.02L42.64 10.02L39.94 10.02L39.94 10.02Q39.84 10.02 39.84 10.12L39.84 10.12L39.84 13.75L39.84 13.75Q39.84 13.86 39.77 13.93L39.77 13.93L39.77 13.93Q39.70 14 39.59 14L39.59 14L37.77 14L37.77 14Q37.66 14 37.59 13.93L37.59 13.93L37.59 13.93Q37.52 13.86 37.52 13.75L37.52 13.75L37.52 4.45L37.52 4.45Q37.52 4.34 37.59 4.27L37.59 4.27L37.59 4.27Q37.66 4.20 37.77 4.20L37.77 4.20L44.21 4.20L44.21 4.20Q44.32 4.20 44.39 4.27L44.39 4.27L44.39 4.27Q44.46 4.34 44.46 4.45L44.46 4.45L44.46 5.94ZM48.26 6.65L48.26 6.65Q49.18 6.65 49.94 6.96L49.94 6.96L49.94 6.96Q50.69 7.28 51.13 7.83L51.13 7.83L51.13 7.83Q51.56 8.39 51.56 9.06L51.56 9.06L51.56 13.75L51.56 13.75Q51.56 13.86 51.49 13.93L51.49 13.93L51.49 13.93Q51.42 14 51.31 14L51.31 14L49.49 14L49.49 14Q49.38 14 49.31 13.93L49.31 13.93L49.31 13.93Q49.24 13.86 49.24 13.75L49.24 13.75L49.24 13.47L49.24 13.47Q49.24 13.40 49.20 13.38L49.20 13.38L49.20 13.38Q49.17 13.37 49.13 13.43L49.13 13.43L49.13 13.43Q48.57 14.11 47.32 14.11L47.32 14.11L47.32 14.11Q46.21 14.11 45.56 13.59L45.56 13.59L45.56 13.59Q44.90 13.06 44.90 12.04L44.90 12.04L44.90 12.04Q44.90 10.96 45.65 10.37L45.65 10.37L45.65 10.37Q46.40 9.79 47.81 9.79L47.81 9.79L49.14 9.79L49.14 9.79Q49.24 9.79 49.24 9.69L49.24 9.69L49.24 9.45L49.24 9.45Q49.24 9.07 48.99 8.86L48.99 8.86L48.99 8.86Q48.75 8.64 48.30 8.64L48.30 8.64L48.30 8.64Q47.98 8.64 47.75 8.74L47.75 8.74L47.75 8.74Q47.52 8.85 47.42 9.03L47.42 9.03L47.42 9.03Q47.35 9.13 47.29 9.18L47.29 9.18L47.29 9.18Q47.22 9.23 47.12 9.21L47.12 9.21L45.25 8.97L45.25 8.97Q45.00 8.95 45.02 8.78L45.02 8.78L45.02 8.78Q45.09 8.18 45.53 7.69L45.53 7.69L45.53 7.69Q45.96 7.21 46.67 6.93L46.67 6.93L46.67 6.93Q47.38 6.65 48.26 6.65L48.26 6.65ZM48.02 12.45L48.02 12.45Q48.55 12.45 48.90 12.17L48.90 12.17L48.90 12.17Q49.24 11.90 49.24 11.45L49.24 11.45L49.24 11.14L49.24 11.14Q49.24 11.05 49.14 11.05L49.14 11.05L48.33 11.05L48.33 11.05Q47.80 11.05 47.51 11.23L47.51 11.23L47.51 11.23Q47.22 11.41 47.22 11.77L47.22 11.77L47.22 11.77Q47.22 12.08 47.43 12.26L47.43 12.26L47.43 12.26Q47.64 12.45 48.02 12.45L48.02 12.45ZM52.99 14L52.99 14Q52.88 14 52.81 13.93L52.81 13.93L52.81 13.93Q52.74 13.86 52.74 13.75L52.74 13.75L52.74 4.45L52.74 4.45Q52.74 4.34 52.81 4.27L52.81 4.27L52.81 4.27Q52.88 4.20 52.99 4.20L52.99 4.20L54.81 4.20L54.81 4.20Q54.92 4.20 54.99 4.27L54.99 4.27L54.99 4.27Q55.06 4.34 55.06 4.45L55.06 4.45L55.06 13.75L55.06 13.75Q55.06 13.86 54.99 13.93L54.99 13.93L54.99 13.93Q54.92 14 54.81 14L54.81 14L52.99 14ZM56.56 14L56.56 14Q56.45 14 56.38 13.93L56.38 13.93L56.38 13.93Q56.31 13.86 56.31 13.75L56.31 13.75L56.31 4.45L56.31 4.45Q56.31 4.34 56.38 4.27L56.38 4.27L56.38 4.27Q56.45 4.20 56.56 4.20L56.56 4.20L58.38 4.20L58.38 4.20Q58.49 4.20 58.56 4.27L58.56 4.27L58.56 4.27Q58.63 4.34 58.63 4.45L58.63 4.45L58.63 13.75L58.63 13.75Q58.63 13.86 58.56 13.93L58.56 13.93L58.56 13.93Q58.49 14 58.38 14L58.38 14L56.56 14ZM61.12 6.29L61.12 6.29Q60.51 6.29 60.13 5.91L60.13 5.91L60.13 5.91Q59.75 5.54 59.75 4.94L59.75 4.94L59.75 4.94Q59.75 4.35 60.13 3.99L60.13 3.99L60.13 3.99Q60.51 3.63 61.12 3.63L61.12 3.63L61.12 3.63Q61.74 3.63 62.12 3.99L62.12 3.99L62.12 3.99Q62.50 4.35 62.50 4.94L62.50 4.94L62.50 4.94Q62.50 5.54 62.12 5.91L62.12 5.91L62.12 5.91Q61.74 6.29 61.12 6.29L61.12 6.29ZM60.21 14L60.21 14Q60.10 14 60.03 13.93L60.03 13.93L60.03 13.93Q59.96 13.86 59.96 13.75L59.96 13.75L59.96 7.01L59.96 7.01Q59.96 6.90 60.03 6.83L60.03 6.83L60.03 6.83Q60.10 6.76 60.21 6.76L60.21 6.76L62.03 6.76L62.03 6.76Q62.15 6.76 62.22 6.83L62.22 6.83L62.22 6.83Q62.29 6.90 62.29 7.01L62.29 7.01L62.29 13.75L62.29 13.75Q62.29 13.86 62.22 13.93L62.22 13.93L62.22 13.93Q62.15 14 62.03 14L62.03 14L60.21 14ZM67.65 6.65L67.65 6.65Q68.74 6.65 69.43 7.34L69.43 7.34L69.43 7.34Q70.13 8.04 70.13 9.23L70.13 9.23L70.13 13.75L70.13 13.75Q70.13 13.86 70.06 13.93L70.06 13.93L70.06 13.93Q69.99 14 69.87 14L69.87 14L68.05 14L68.05 14Q67.94 14 67.87 13.93L67.87 13.93L67.87 13.93Q67.80 13.86 67.80 13.75L67.80 13.75L67.80 9.73L67.80 9.73Q67.80 9.24 67.54 8.94L67.54 8.94L67.54 8.94Q67.28 8.64 66.85 8.64L66.85 8.64L66.85 8.64Q66.42 8.64 66.15 8.94L66.15 8.94L66.15 8.94Q65.88 9.24 65.88 9.73L65.88 9.73L65.88 13.75L65.88 13.75Q65.88 13.86 65.81 13.93L65.81 13.93L65.81 13.93Q65.74 14 65.63 14L65.63 14L63.81 14L63.81 14Q63.70 14 63.63 13.93L63.63 13.93L63.63 13.93Q63.56 13.86 63.56 13.75L63.56 13.75L63.56 7.01L63.56 7.01Q63.56 6.90 63.63 6.83L63.63 6.83L63.63 6.83Q63.70 6.76 63.81 6.76L63.81 6.76L65.63 6.76L65.63 6.76Q65.74 6.76 65.81 6.83L65.81 6.83L65.81 6.83Q65.88 6.90 65.88 7.01L65.88 7.01L65.88 7.41L65.88 7.41Q65.88 7.48 65.92 7.49L65.92 7.49L65.92 7.49Q65.95 7.50 65.98 7.45L65.98 7.45L65.98 7.45Q66.56 6.65 67.65 6.65L67.65 6.65ZM75.66 7.01L75.66 7.01Q75.66 6.90 75.73 6.83L75.73 6.83L75.73 6.83Q75.80 6.76 75.91 6.76L75.91 6.76L77.73 6.76L77.73 6.76Q77.84 6.76 77.91 6.83L77.91 6.83L77.91 6.83Q77.98 6.90 77.98 7.01L77.98 7.01L77.98 13.19L77.98 13.19Q77.98 15.11 76.87 15.93L76.87 15.93L76.87 15.93Q75.75 16.76 74.07 16.76L74.07 16.76L74.07 16.76Q73.54 16.76 72.83 16.66L72.83 16.66L72.83 16.66Q72.59 16.62 72.60 16.38L72.60 16.38L72.67 14.83L72.67 14.83Q72.69 14.56 72.97 14.60L72.97 14.60L72.97 14.60Q73.53 14.71 73.95 14.71L73.95 14.71L73.95 14.71Q74.75 14.71 75.20 14.35L75.20 14.35L75.20 14.35Q75.66 13.99 75.66 13.20L75.66 13.20L75.50 13.34L75.50 13.34Q75.01 13.80 74.10 13.80L74.10 13.80L74.10 13.80Q73.18 13.80 72.41 13.40L72.41 13.40L72.41 13.40Q71.64 12.99 71.30 11.97L71.30 11.97L71.30 11.97Q71.08 11.30 71.08 10.32L71.08 10.32L71.08 10.32Q71.08 9.24 71.34 8.55L71.34 8.55L71.34 8.55Q71.67 7.69 72.37 7.17L72.37 7.17L72.37 7.17Q73.08 6.65 74.02 6.65L74.02 6.65L74.02 6.65Q75.00 6.65 75.54 7.22L75.54 7.22L75.54 7.22Q75.59 7.28 75.62 7.27L75.62 7.27L75.62 7.27Q75.66 7.25 75.66 7.18L75.66 7.18L75.66 7.01ZM75.53 11.35L75.53 11.35Q75.66 11.03 75.66 10.30L75.66 10.30L75.66 10.30Q75.66 9.93 75.63 9.71L75.63 9.71L75.63 9.71Q75.60 9.49 75.52 9.30L75.52 9.30L75.52 9.30Q75.40 8.99 75.16 8.81L75.16 8.81L75.16 8.81Q74.91 8.64 74.56 8.64L74.56 8.64L74.56 8.64Q73.91 8.64 73.63 9.30L73.63 9.30L73.63 9.30Q73.42 9.69 73.42 10.33L73.42 10.33L73.42 10.33Q73.42 11.02 73.60 11.34L73.60 11.34L73.60 11.34Q73.72 11.63 73.98 11.82L73.98 11.82L73.98 11.82Q74.23 12.00 74.58 12.00L74.58 12.00L74.58 12.00Q75.29 12.00 75.53 11.35L75.53 11.35ZM86.20 5.94L86.20 5.94Q86.20 6.05 86.13 6.12L86.13 6.12L86.13 6.12Q86.06 6.19 85.95 6.19L85.95 6.19L81.66 6.19L81.66 6.19Q81.56 6.19 81.56 6.29L81.56 6.29L81.56 7.95L81.56 7.95Q81.56 8.05 81.66 8.05L81.66 8.05L84.36 8.05L84.36 8.05Q84.48 8.05 84.55 8.12L84.55 8.12L84.55 8.12Q84.62 8.19 84.62 8.30L84.62 8.30L84.62 9.77L84.62 9.77Q84.62 9.88 84.55 9.95L84.55 9.95L84.55 9.95Q84.48 10.02 84.36 10.02L84.36 10.02L81.66 10.02L81.66 10.02Q81.56 10.02 81.56 10.12L81.56 10.12L81.56 11.91L81.56 11.91Q81.56 12.01 81.66 12.01L81.66 12.01L85.95 12.01L85.95 12.01Q86.06 12.01 86.13 12.08L86.13 12.08L86.13 12.08Q86.20 12.15 86.20 12.26L86.20 12.26L86.20 13.75L86.20 13.75Q86.20 13.86 86.13 13.93L86.13 13.93L86.13 13.93Q86.06 14 85.95 14L85.95 14L79.49 14L79.49 14Q79.38 14 79.31 13.93L79.31 13.93L79.31 13.93Q79.24 13.86 79.24 13.75L79.24 13.75L79.24 4.45L79.24 4.45Q79.24 4.34 79.31 4.27L79.31 4.27L79.31 4.27Q79.38 4.20 79.49 4.20L79.49 4.20L85.95 4.20L85.95 4.20Q86.06 4.20 86.13 4.27L86.13 4.27L86.13 4.27Q86.20 4.34 86.20 4.45L86.20 4.45L86.20 5.94ZM95.54 6.65L95.54 6.65Q96.63 6.65 97.24 7.32L97.24 7.32L97.24 7.32Q97.86 7.99 97.86 9.21L97.86 9.21L97.86 13.75L97.86 13.75Q97.86 13.86 97.79 13.93L97.79 13.93L97.79 13.93Q97.72 14 97.61 14L97.61 14L95.80 14L95.80 14Q95.69 14 95.62 13.93L95.62 13.93L95.62 13.93Q95.55 13.86 95.55 13.75L95.55 13.75L95.55 9.72L95.55 9.72Q95.55 9.24 95.31 8.94L95.31 8.94L95.31 8.94Q95.06 8.64 94.65 8.64L94.65 8.64L94.65 8.64Q94.25 8.64 93.99 8.93L93.99 8.93L93.99 8.93Q93.73 9.23 93.73 9.72L93.73 9.72L93.73 13.75L93.73 13.75Q93.73 13.86 93.66 13.93L93.66 13.93L93.66 13.93Q93.59 14 93.48 14L93.48 14L91.66 14L91.66 14Q91.55 14 91.48 13.93L91.48 13.93L91.48 13.93Q91.41 13.86 91.41 13.75L91.41 13.75L91.41 9.72L91.41 9.72Q91.41 9.24 91.15 8.94L91.15 8.94L91.15 8.94Q90.89 8.64 90.48 8.64L90.48 8.64L90.48 8.64Q90.10 8.64 89.85 8.88L89.85 8.88L89.85 8.88Q89.60 9.11 89.54 9.51L89.54 9.51L89.54 13.75L89.54 13.75Q89.54 13.86 89.47 13.93L89.47 13.93L89.47 13.93Q89.40 14 89.29 14L89.29 14L87.47 14L87.47 14Q87.36 14 87.29 13.93L87.29 13.93L87.29 13.93Q87.22 13.86 87.22 13.75L87.22 13.75L87.22 7.01L87.22 7.01Q87.22 6.90 87.29 6.83L87.29 6.83L87.29 6.83Q87.36 6.76 87.47 6.76L87.47 6.76L89.29 6.76L89.29 6.76Q89.40 6.76 89.47 6.83L89.47 6.83L89.47 6.83Q89.54 6.90 89.54 7.01L89.54 7.01L89.54 7.50L89.54 7.50Q89.54 7.57 89.58 7.58L89.58 7.58L89.58 7.58Q89.61 7.59 89.66 7.53L89.66 7.53L89.66 7.53Q90.22 6.65 91.42 6.65L91.42 6.65L91.42 6.65Q92.11 6.65 92.63 6.95L92.63 6.95L92.63 6.95Q93.16 7.25 93.45 7.83L93.45 7.83L93.45 7.83Q93.48 7.88 93.51 7.88L93.51 7.88L93.51 7.88Q93.55 7.87 93.58 7.81L93.58 7.81L93.58 7.81Q94.16 6.65 95.54 6.65L95.54 6.65ZM102.30 14.11L102.30 14.11Q101.04 14.11 100.16 13.44L100.16 13.44L100.16 13.44Q99.29 12.77 98.98 11.62L98.98 11.62L98.98 11.62Q98.81 11.05 98.81 10.36L98.81 10.36L98.81 10.36Q98.81 9.66 98.99 9.00L98.99 9.00L98.99 9.00Q99.32 7.90 100.19 7.27L100.19 7.27L100.19 7.27Q101.07 6.65 102.31 6.65L102.31 6.65L102.31 6.65Q103.54 6.65 104.40 7.27L104.40 7.27L104.40 7.27Q105.25 7.90 105.59 8.99L105.59 8.99L105.59 8.99Q105.78 9.62 105.78 10.33L105.78 10.33L105.78 10.33Q105.78 10.98 105.63 11.56L105.63 11.56L105.63 11.56Q105.34 12.74 104.45 13.43L104.45 13.43L104.45 13.43Q103.57 14.11 102.30 14.11L102.30 14.11ZM102.30 12.12L102.30 12.12Q102.70 12.12 102.98 11.87L102.98 11.87L102.98 11.87Q103.25 11.61 103.36 11.16L103.36 11.16L103.36 11.16Q103.45 10.79 103.45 10.36L103.45 10.36L103.45 10.36Q103.45 9.94 103.35 9.55L103.35 9.55L103.35 9.55Q103.24 9.11 102.97 8.88L102.97 8.88L102.97 8.88Q102.70 8.64 102.30 8.64L102.30 8.64L102.30 8.64Q101.88 8.64 101.62 8.88L101.62 8.88L101.62 8.88Q101.36 9.11 101.25 9.55L101.25 9.55L101.25 9.55Q101.15 9.86 101.15 10.36L101.15 10.36L101.15 10.36Q101.15 10.79 101.23 11.16L101.23 11.16L101.23 11.16Q101.36 11.61 101.63 11.87L101.63 11.87L101.63 11.87Q101.89 12.12 102.30 12.12L102.30 12.12ZM108.07 6.34L108.07 6.34Q107.46 6.34 107.09 5.96L107.09 5.96L107.09 5.96Q106.71 5.57 106.71 5.01L106.71 5.01L106.71 5.01Q106.71 4.47 107.11 4.07L107.11 4.07L107.11 4.07Q107.52 3.68 108.07 3.68L108.07 3.68L108.07 3.68Q108.61 3.68 109.03 4.07L109.03 4.07L109.03 4.07Q109.44 4.47 109.44 5.01L109.44 5.01L109.44 5.01Q109.44 5.57 109.05 5.96L109.05 5.96L109.05 5.96Q108.67 6.34 108.07 6.34L108.07 6.34ZM105.50 16.83L105.50 16.83Q105.25 16.83 105.25 16.58L105.25 16.58L105.25 15.15L105.25 15.15Q105.25 14.90 105.52 14.90L105.52 14.90L105.52 14.90Q106.32 14.92 106.61 14.69L106.61 14.69L106.61 14.69Q106.90 14.46 106.90 13.82L106.90 13.82L106.90 7.01L106.90 7.01Q106.90 6.90 106.97 6.83L106.97 6.83L106.97 6.83Q107.04 6.76 107.16 6.76L107.16 6.76L108.98 6.76L108.98 6.76Q109.09 6.76 109.16 6.83L109.16 6.83L109.16 6.83Q109.23 6.90 109.23 7.01L109.23 7.01L109.23 13.79L109.23 13.79Q109.23 15.02 108.91 15.68L108.91 15.68L108.91 15.68Q108.58 16.34 107.79 16.60L107.79 16.60L107.79 16.60Q107.00 16.86 105.50 16.83L105.50 16.83ZM111.68 6.29L111.68 6.29Q111.06 6.29 110.68 5.91L110.68 5.91L110.68 5.91Q110.31 5.54 110.31 4.94L110.31 4.94L110.31 4.94Q110.31 4.35 110.68 3.99L110.68 3.99L110.68 3.99Q111.06 3.63 111.68 3.63L111.68 3.63L111.68 3.63Q112.29 3.63 112.67 3.99L112.67 3.99L112.67 3.99Q113.05 4.35 113.05 4.94L113.05 4.94L113.05 4.94Q113.05 5.54 112.67 5.91L112.67 5.91L112.67 5.91Q112.29 6.29 111.68 6.29L111.68 6.29ZM110.77 14L110.77 14Q110.66 14 110.59 13.93L110.59 13.93L110.59 13.93Q110.52 13.86 110.52 13.75L110.52 13.75L110.52 7.01L110.52 7.01Q110.52 6.90 110.59 6.83L110.59 6.83L110.59 6.83Q110.66 6.76 110.77 6.76L110.77 6.76L112.59 6.76L112.59 6.76Q112.70 6.76 112.77 6.83L112.77 6.83L112.77 6.83Q112.84 6.90 112.84 7.01L112.84 7.01L112.84 13.75L112.84 13.75Q112.84 13.86 112.77 13.93L112.77 13.93L112.77 13.93Q112.70 14 112.59 14L112.59 14L110.77 14ZM117.19 14.11L117.19 14.11Q116.20 14.11 115.47 13.84L115.47 13.84L115.47 13.84Q114.73 13.57 114.33 13.07L114.33 13.07L114.33 13.07Q113.93 12.57 113.93 11.93L113.93 11.93L113.93 11.86L113.93 11.86Q113.93 11.75 114.00 11.68L114.00 11.68L114.00 11.68Q114.07 11.61 114.18 11.61L114.18 11.61L115.91 11.61L115.91 11.61Q116.16 11.61 116.16 11.69L116.16 11.69L116.16 11.77L116.16 11.77Q116.16 12.04 116.45 12.21L116.45 12.21L116.45 12.21Q116.73 12.39 117.18 12.39L117.18 12.39L117.18 12.39Q117.57 12.39 117.81 12.26L117.81 12.26L117.81 12.26Q118.05 12.12 118.05 11.90L118.05 11.90L118.05 11.90Q118.05 11.68 117.80 11.57L117.80 11.57L117.80 11.57Q117.54 11.47 117.00 11.37L117.00 11.37L117.00 11.37Q116.12 11.20 115.57 10.96L115.57 10.96L115.57 10.96Q114.87 10.67 114.44 10.22L114.44 10.22L114.44 10.22Q114.02 9.77 114.02 9.02L114.02 9.02L114.02 9.02Q114.02 7.92 114.86 7.29L114.86 7.29L114.86 7.29Q115.71 6.65 117.10 6.65L117.10 6.65L117.10 6.65Q118.03 6.65 118.74 6.95L118.74 6.95L118.74 6.95Q119.45 7.25 119.84 7.80L119.84 7.80L119.84 7.80Q120.23 8.34 120.23 9.06L120.23 9.06L120.23 9.06Q120.23 9.13 120.16 9.18L120.16 9.18L120.16 9.18Q120.09 9.23 119.98 9.23L119.98 9.23L118.31 9.23L118.31 9.23Q118.06 9.23 118.06 9.14L118.06 9.14L118.06 9.06L118.06 9.06Q118.06 8.79 117.81 8.62L117.81 8.62L117.81 8.62Q117.56 8.46 117.12 8.46L117.12 8.46L117.12 8.46Q116.73 8.46 116.49 8.59L116.49 8.59L116.49 8.59Q116.24 8.72 116.24 8.96L116.24 8.96L116.24 8.96Q116.24 9.20 116.51 9.30L116.51 9.30L116.51 9.30Q116.77 9.41 117.40 9.53L117.40 9.53L117.40 9.53Q118.26 9.70 118.55 9.80L118.55 9.80L118.55 9.80Q119.41 10.08 119.89 10.56L119.89 10.56L119.89 10.56Q120.37 11.03 120.37 11.83L120.37 11.83L120.37 11.83Q120.37 12.92 119.51 13.52L119.51 13.52L119.51 13.52Q118.65 14.11 117.19 14.11L117.19 14.11Z"></path></g><!----><g data-v-423bf9ae="" id="1b170d7a-b8d5-4b28-a189-4bdd05e67dd1" transform="matrix(1.0546599347364078,0,0,1.0546599347364078,-6.5799186793302695,-8.480650725735494)" stroke="none" fill="#ffffff"><switch><g><path d="M91.549 18.206a1.001 1.001 0 0 0-1.367.361c-13.041 22.417-47.49 63.495-52.521 68.526-6.716 6.714-17.642 6.716-24.358 0-3.253-3.253-5.044-7.579-5.044-12.18s1.792-8.926 5.044-12.179c5.047-5.047 44.772-38.466 67.775-52.08a1 1 0 1 0-1.019-1.721C56.927 22.625 16.968 56.243 11.89 61.321c-3.631 3.631-5.63 8.458-5.63 13.593s2 9.963 5.63 13.594a19.166 19.166 0 0 0 13.593 5.621c4.923 0 9.846-1.874 13.593-5.621 5.241-5.241 39.441-45.911 52.835-68.935a1 1 0 0 0-.362-1.367z"></path><path d="M14.673 67.206a13.071 13.071 0 0 0-3.855 9.306c0 3.515 1.369 6.819 3.854 9.305s5.79 3.854 9.306 3.854c3.515 0 6.82-1.369 9.305-3.854 5.131-5.131 5.13-13.479 0-18.61-2.485-2.485-5.79-3.854-9.305-3.854s-6.82 1.368-9.305 3.853zm9.305 20.465a11.088 11.088 0 0 1-7.892-3.269 11.088 11.088 0 0 1-3.268-7.891 11.09 11.09 0 0 1 3.269-7.892c2.107-2.107 4.91-3.269 7.891-3.269s5.783 1.161 7.891 3.269c4.351 4.352 4.351 11.432 0 15.782a11.085 11.085 0 0 1-7.891 3.27z"></path><circle cx="16.803" cy="73.756" r=".854"></circle><circle cx="26.783" cy="70.673" r="2.08"></circle><circle cx="23.045" cy="80.301" r="2.776"></circle><circle cx="31.017" cy="79.092" r="1.306"></circle><path d="M44.088 56.401a.997.997 0 0 0 1.414 0L89.814 12.09a.999.999 0 1 0-1.414-1.414L44.088 54.987a.999.999 0 0 0 0 1.414zM45.015 46.545a.997.997 0 0 0 .707-.293l13.364-13.365a.999.999 0 1 0-1.414-1.414L44.308 44.838a.999.999 0 0 0 .707 1.707zM40.537 50.022a.999.999 0 0 0-1.414 0l-7.542 7.543a.999.999 0 1 0 1.414 1.414l7.542-7.543a1 1 0 0 0 0-1.414zM76.003 32.692l-17.79 17.79a.999.999 0 1 0 1.414 1.414l17.79-17.79a.999.999 0 1 0-1.414-1.414zM52.434 56.263L41.355 67.341a.999.999 0 1 0 1.414 1.414l11.079-11.078a.999.999 0 1 0-1.414-1.414z"></path></g></switch></g><!----></svg>