<svg width="1012" height="506" viewBox="0 0 1012 506" fill="none" xmlns="http://www.w3.org/2000/svg">
<rect width="1012" height="506" fill="#E9B84C"/>
<rect width="1012" height="506" fill="url(#paint0_linear)"/>
<g clip-path="url(#clip0)">
<path d="M225.708 279.639C224.783 279.639 224.122 279.168 223.726 278.226L213.026 252.494C212.894 252.164 212.652 251.999 212.299 251.999H206.553C206.113 251.999 205.893 252.235 205.893 252.706V277.872C205.893 278.39 205.739 278.815 205.43 279.144C205.122 279.474 204.726 279.639 204.241 279.639H192.22C191.736 279.639 191.34 279.474 191.031 279.144C190.723 278.815 190.569 278.39 190.569 277.872V212.13C190.569 211.612 190.723 211.187 191.031 210.858C191.34 210.528 191.736 210.363 192.22 210.363H219.103C223.198 210.363 226.786 211.258 229.869 213.049C232.951 214.84 235.329 217.361 237.002 220.613C238.719 223.865 239.578 227.611 239.578 231.853C239.578 236.188 238.565 239.982 236.54 243.234C234.558 246.438 231.762 248.771 228.151 250.232C227.755 250.421 227.645 250.75 227.821 251.222L239.644 277.589L239.842 278.367C239.842 279.215 239.336 279.639 238.323 279.639H225.708ZM206.553 224.43C206.113 224.43 205.893 224.666 205.893 225.137V238.78C205.893 239.252 206.113 239.487 206.553 239.487H216.593C218.882 239.487 220.732 238.804 222.141 237.437C223.594 236.07 224.32 234.28 224.32 232.065C224.32 229.755 223.594 227.894 222.141 226.48C220.732 225.113 218.882 224.43 216.593 224.43H206.553ZM270.687 266.491C272.625 266.491 274.408 266.161 276.037 265.501C277.667 264.889 279.032 264.064 280.132 263.027C280.529 262.556 280.925 262.32 281.321 262.32C281.718 262.32 282.092 262.556 282.444 263.027L288.191 270.308C288.543 270.779 288.719 271.227 288.719 271.651C288.719 272.075 288.543 272.5 288.191 272.924C286.077 275.28 283.435 277.118 280.265 278.438C277.05 279.757 273.616 280.417 269.961 280.417C265.778 280.417 262.079 279.616 258.864 278.013C255.606 276.411 252.92 274.149 250.806 271.227C247.416 266.609 245.721 260.741 245.721 253.625C245.721 250.468 246.073 247.499 246.777 244.718C248.142 239.581 250.784 235.434 254.703 232.277C258.666 229.166 263.29 227.611 268.574 227.611C274.738 227.611 279.714 229.638 283.501 233.691C287.288 237.791 289.776 243.517 290.965 250.868C291.229 252.706 291.405 254.709 291.493 256.877C291.493 258.055 290.943 258.644 289.842 258.644H261.903C261.727 258.644 261.573 258.715 261.44 258.856C261.264 258.998 261.22 259.186 261.308 259.422L261.837 261.401C262.453 263.004 263.532 264.252 265.073 265.148C266.614 266.043 268.486 266.491 270.687 266.491ZM268.31 241.749C265.183 241.749 263.048 243.352 261.903 246.556C261.683 247.216 261.528 247.711 261.44 248.041V248.253C261.44 248.677 261.661 248.889 262.101 248.889H274.782C275.047 248.889 275.223 248.795 275.311 248.606C275.399 248.465 275.399 248.276 275.311 248.041L274.981 246.768C274.496 245.213 273.682 243.988 272.537 243.092C271.436 242.197 270.027 241.749 268.31 241.749ZM317.781 227.682C321.832 227.682 325.531 228.412 328.877 229.873C332.224 231.381 334.844 233.431 336.737 236.023C338.63 238.662 339.577 241.561 339.577 244.718V277.872C339.577 278.39 339.423 278.815 339.115 279.144C338.807 279.474 338.41 279.639 337.926 279.639H325.905C325.421 279.639 325.024 279.474 324.716 279.144C324.408 278.815 324.254 278.39 324.254 277.872V275.893C324.254 275.563 324.166 275.351 323.989 275.257C323.857 275.209 323.703 275.327 323.527 275.61C321.061 278.815 317.076 280.417 311.572 280.417C306.728 280.417 302.854 279.192 299.947 276.741C297.041 274.243 295.588 270.591 295.588 265.784C295.588 260.694 297.239 256.759 300.542 253.979C303.844 251.245 308.6 249.879 314.809 249.879H323.593C324.034 249.879 324.254 249.643 324.254 249.172V247.475C324.254 245.684 323.703 244.294 322.602 243.304C321.546 242.268 320.026 241.749 318.045 241.749C316.636 241.749 315.425 241.985 314.412 242.456C313.4 242.975 312.673 243.658 312.233 244.506C311.924 244.977 311.638 245.331 311.374 245.567C311.066 245.802 310.713 245.873 310.317 245.779L297.9 244.082C296.799 243.988 296.315 243.54 296.447 242.739C296.755 239.911 297.856 237.343 299.749 235.034C301.643 232.772 304.153 230.981 307.279 229.661C310.405 228.342 313.906 227.682 317.781 227.682ZM316.196 268.682C318.529 268.682 320.467 268.023 322.008 266.703C323.505 265.431 324.254 263.734 324.254 261.613V259.422C324.254 258.998 324.034 258.786 323.593 258.786H318.243C315.909 258.786 314.104 259.21 312.827 260.058C311.55 260.906 310.912 262.179 310.912 263.875C310.912 265.336 311.374 266.491 312.299 267.339C313.223 268.235 314.522 268.682 316.196 268.682ZM369.167 280.417C364.148 280.417 359.744 279.074 355.958 276.388C352.127 273.654 349.419 269.931 347.833 265.218C346.645 262.014 346.05 258.22 346.05 253.837C346.05 249.407 346.645 245.614 347.833 242.456C349.375 237.838 352.061 234.209 355.891 231.57C359.722 228.978 364.148 227.682 369.167 227.682C374.319 227.682 378.833 229.025 382.708 231.711C386.583 234.445 389.203 237.885 390.568 242.032C390.92 243.069 391.162 244.153 391.294 245.284V245.708C391.294 246.556 390.81 247.075 389.841 247.263L378.084 249.172L377.622 249.242C376.829 249.242 376.367 248.842 376.235 248.041L375.838 246.698C375.486 245.237 374.694 244.035 373.461 243.092C372.228 242.197 370.775 241.749 369.101 241.749C365.843 241.749 363.685 243.304 362.629 246.415C361.968 248.253 361.638 250.75 361.638 253.908C361.638 256.736 361.946 259.21 362.563 261.33C363.707 264.677 365.887 266.35 369.101 266.35C370.687 266.35 372.052 265.925 373.197 265.077C374.341 264.229 375.2 262.98 375.772 261.33L375.838 260.836C375.927 260.506 376.169 260.152 376.565 259.775C376.961 259.445 377.38 259.304 377.82 259.351L389.643 261.33C390.744 261.519 391.206 262.179 391.03 263.31C390.898 264.347 390.744 265.171 390.568 265.784C389.07 270.402 386.406 274.008 382.576 276.6C378.701 279.144 374.231 280.417 369.167 280.417ZM426.961 239.841C426.961 240.359 426.807 240.783 426.499 241.113C426.19 241.443 425.794 241.608 425.31 241.608H417.648C417.208 241.608 416.987 241.844 416.987 242.315V259.634C416.987 263.404 418.419 265.289 421.281 265.289H424.121C424.605 265.289 425.001 265.454 425.31 265.784C425.618 266.114 425.772 266.538 425.772 267.056V277.448C425.772 278.532 425.244 279.121 424.187 279.215C421.369 279.357 419.365 279.427 418.176 279.427C412.848 279.427 408.885 278.508 406.287 276.67C403.689 274.832 402.368 271.392 402.324 266.35V242.315C402.324 241.844 402.104 241.608 401.664 241.608H397.106C396.622 241.608 396.226 241.443 395.918 241.113C395.609 240.783 395.455 240.359 395.455 239.841V230.227C395.455 229.708 395.609 229.284 395.918 228.954C396.226 228.624 396.622 228.459 397.106 228.459H401.664C402.104 228.459 402.324 228.224 402.324 227.753V216.583C402.324 216.065 402.479 215.641 402.787 215.311C403.095 214.981 403.491 214.816 403.976 214.816H415.336C415.821 214.816 416.217 214.981 416.525 215.311C416.833 215.641 416.987 216.065 416.987 216.583V227.753C416.987 228.224 417.208 228.459 417.648 228.459H425.31C425.794 228.459 426.19 228.624 426.499 228.954C426.807 229.284 426.961 229.708 426.961 230.227V239.841ZM479.669 222.663C479.669 223.181 479.515 223.605 479.206 223.935C478.898 224.265 478.502 224.43 478.017 224.43H449.814C449.374 224.43 449.154 224.666 449.154 225.137V236.872C449.154 237.343 449.374 237.579 449.814 237.579H467.648C468.176 237.579 468.594 237.743 468.903 238.073C469.211 238.403 469.365 238.827 469.365 239.346V249.737C469.365 250.256 469.211 250.68 468.903 251.01C468.594 251.34 468.176 251.505 467.648 251.505H449.814C449.374 251.505 449.154 251.74 449.154 252.211V277.872C449.154 278.39 449 278.815 448.691 279.144C448.383 279.474 447.987 279.639 447.502 279.639H435.481C434.997 279.639 434.601 279.474 434.292 279.144C433.984 278.815 433.83 278.39 433.83 277.872V212.13C433.83 211.612 433.984 211.187 434.292 210.858C434.601 210.528 434.997 210.363 435.481 210.363H478.017C478.502 210.363 478.898 210.528 479.206 210.858C479.515 211.187 479.669 211.612 479.669 212.13V222.663ZM504.768 227.682C508.819 227.682 512.517 228.412 515.864 229.873C519.166 231.381 521.786 233.431 523.724 236.023C525.617 238.662 526.564 241.561 526.564 244.718V277.872C526.564 278.39 526.41 278.815 526.102 279.144C525.793 279.474 525.397 279.639 524.913 279.639H512.892C512.407 279.639 512.011 279.474 511.703 279.144C511.395 278.815 511.24 278.39 511.24 277.872V275.893C511.24 275.563 511.152 275.351 510.976 275.257C510.844 275.209 510.69 275.327 510.514 275.61C508.048 278.815 504.063 280.417 498.559 280.417C493.671 280.417 489.796 279.192 486.934 276.741C484.028 274.243 482.575 270.591 482.575 265.784C482.575 260.694 484.226 256.759 487.529 253.979C490.831 251.245 495.587 249.879 501.795 249.879H510.58C511.02 249.879 511.24 249.643 511.24 249.172V247.475C511.24 245.684 510.69 244.294 509.589 243.304C508.532 242.268 507.013 241.749 505.032 241.749C503.623 241.749 502.412 241.985 501.399 242.456C500.386 242.975 499.66 243.658 499.219 244.506C498.911 244.977 498.625 245.331 498.361 245.567C498.052 245.802 497.678 245.873 497.238 245.779L484.887 244.082C483.786 243.988 483.279 243.54 483.367 242.739C483.676 239.911 484.798 237.343 486.736 235.034C488.629 232.772 491.139 230.981 494.266 229.661C497.392 228.342 500.893 227.682 504.768 227.682ZM503.182 268.682C505.516 268.682 507.454 268.023 508.995 266.703C510.492 265.431 511.24 263.734 511.24 261.613V259.422C511.24 258.998 511.02 258.786 510.58 258.786H505.23C502.896 258.786 501.091 259.21 499.814 260.058C498.537 260.906 497.898 262.179 497.898 263.875C497.898 265.336 498.361 266.491 499.285 267.339C500.21 268.235 501.509 268.682 503.182 268.682ZM536.009 279.639C535.525 279.639 535.128 279.474 534.82 279.144C534.512 278.815 534.358 278.39 534.358 277.872V212.13C534.358 211.612 534.512 211.187 534.82 210.858C535.128 210.528 535.525 210.363 536.009 210.363H548.03C548.514 210.363 548.911 210.528 549.219 210.858C549.527 211.187 549.681 211.612 549.681 212.13V277.872C549.681 278.39 549.527 278.815 549.219 279.144C548.911 279.474 548.514 279.639 548.03 279.639H536.009ZM559.589 279.639C559.104 279.639 558.708 279.474 558.4 279.144C558.092 278.815 557.938 278.39 557.938 277.872V212.13C557.938 211.612 558.092 211.187 558.4 210.858C558.708 210.528 559.104 210.363 559.589 210.363H571.61C572.094 210.363 572.49 210.528 572.799 210.858C573.107 211.187 573.261 211.612 573.261 212.13V277.872C573.261 278.39 573.107 278.815 572.799 279.144C572.49 279.474 572.094 279.639 571.61 279.639H559.589ZM589.707 225.137C587.021 225.137 584.842 224.242 583.169 222.451C581.495 220.707 580.659 218.421 580.659 215.594C580.659 212.813 581.495 210.575 583.169 208.878C584.842 207.182 587.021 206.333 589.707 206.333C592.437 206.333 594.639 207.182 596.312 208.878C597.986 210.575 598.822 212.813 598.822 215.594C598.822 218.421 597.986 220.707 596.312 222.451C594.639 224.242 592.437 225.137 589.707 225.137ZM583.697 279.639C583.213 279.639 582.816 279.474 582.508 279.144C582.2 278.815 582.046 278.39 582.046 277.872V230.227C582.046 229.708 582.2 229.284 582.508 228.954C582.816 228.624 583.213 228.459 583.697 228.459H595.718C596.246 228.459 596.665 228.624 596.973 228.954C597.281 229.284 597.435 229.708 597.435 230.227V277.872C597.435 278.39 597.281 278.815 596.973 279.144C596.665 279.474 596.246 279.639 595.718 279.639H583.697ZM632.838 227.682C637.637 227.682 641.556 229.308 644.595 232.559C647.677 235.858 649.218 240.312 649.218 245.92V277.872C649.218 278.39 649.064 278.815 648.756 279.144C648.448 279.474 648.029 279.639 647.501 279.639H635.48C634.996 279.639 634.599 279.474 634.291 279.144C633.983 278.815 633.829 278.39 633.829 277.872V249.455C633.829 247.145 633.256 245.284 632.111 243.87C630.966 242.456 629.447 241.749 627.554 241.749C625.66 241.749 624.119 242.456 622.93 243.87C621.742 245.284 621.147 247.145 621.147 249.455V277.872C621.147 278.39 620.993 278.815 620.685 279.144C620.376 279.474 619.98 279.639 619.496 279.639H607.475C606.99 279.639 606.594 279.474 606.286 279.144C605.978 278.815 605.824 278.39 605.824 277.872V230.227C605.824 229.708 605.978 229.284 606.286 228.954C606.594 228.624 606.99 228.459 607.475 228.459H619.496C619.98 228.459 620.376 228.624 620.685 228.954C620.993 229.284 621.147 229.708 621.147 230.227V233.054C621.147 233.384 621.235 233.573 621.411 233.62C621.543 233.667 621.675 233.573 621.808 233.337C624.362 229.567 628.038 227.682 632.838 227.682ZM685.744 230.227C685.744 229.708 685.898 229.284 686.206 228.954C686.514 228.624 686.911 228.459 687.395 228.459H699.416C699.9 228.459 700.297 228.624 700.605 228.954C700.913 229.284 701.067 229.708 701.067 230.227V273.913C701.067 282.962 698.623 289.418 693.736 293.283C688.804 297.194 682.639 299.15 675.242 299.15C672.908 299.15 670.178 298.914 667.052 298.443C665.995 298.254 665.488 297.595 665.532 296.464L665.995 285.507C666.083 284.234 666.743 283.692 667.976 283.881C670.442 284.399 672.6 284.658 674.449 284.658C677.972 284.658 680.724 283.81 682.705 282.113C684.731 280.417 685.744 277.707 685.744 273.984L684.687 274.974C682.529 277.142 679.447 278.226 675.44 278.226C671.389 278.226 667.668 277.283 664.278 275.398C660.887 273.466 658.443 270.096 656.946 265.289C655.977 262.132 655.493 258.244 655.493 253.625C655.493 248.536 656.065 244.365 657.21 241.113C658.663 237.06 660.931 233.808 664.013 231.358C667.14 228.907 670.772 227.682 674.912 227.682C679.227 227.682 682.573 229.025 684.951 231.711C685.171 231.994 685.347 232.112 685.479 232.065C685.656 231.97 685.744 231.758 685.744 231.428V230.227ZM684.885 260.906C685.457 259.398 685.744 256.924 685.744 253.484C685.744 251.74 685.678 250.35 685.546 249.313C685.413 248.276 685.171 247.31 684.819 246.415C684.291 244.954 683.498 243.799 682.441 242.951C681.34 242.15 680.019 241.749 678.478 241.749C675.616 241.749 673.568 243.304 672.336 246.415C671.411 248.253 670.949 250.68 670.949 253.696C670.949 256.948 671.345 259.328 672.137 260.836C672.666 262.202 673.502 263.333 674.647 264.229C675.748 265.077 677.069 265.501 678.61 265.501C681.737 265.501 683.828 263.97 684.885 260.906ZM755.36 222.663C755.36 223.181 755.206 223.605 754.898 223.935C754.589 224.265 754.193 224.43 753.709 224.43H725.374C724.933 224.43 724.713 224.666 724.713 225.137V236.872C724.713 237.343 724.933 237.579 725.374 237.579H743.207C743.735 237.579 744.154 237.743 744.462 238.073C744.77 238.403 744.924 238.827 744.924 239.346V249.737C744.924 250.256 744.77 250.68 744.462 251.01C744.154 251.34 743.735 251.505 743.207 251.505H725.374C724.933 251.505 724.713 251.74 724.713 252.211V264.865C724.713 265.336 724.933 265.572 725.374 265.572H753.709C754.193 265.572 754.589 265.737 754.898 266.067C755.206 266.397 755.36 266.821 755.36 267.339V277.872C755.36 278.39 755.206 278.815 754.898 279.144C754.589 279.474 754.193 279.639 753.709 279.639H711.041C710.556 279.639 710.16 279.474 709.852 279.144C709.544 278.815 709.389 278.39 709.389 277.872V212.13C709.389 211.612 709.544 211.187 709.852 210.858C710.16 210.528 710.556 210.363 711.041 210.363H753.709C754.193 210.363 754.589 210.528 754.898 210.858C755.206 211.187 755.36 211.612 755.36 212.13V222.663ZM817.05 227.682C821.85 227.682 825.593 229.261 828.279 232.418C831.009 235.576 832.374 240.029 832.374 245.779V277.872C832.374 278.39 832.22 278.815 831.912 279.144C831.603 279.474 831.207 279.639 830.723 279.639H818.768C818.283 279.639 817.887 279.474 817.579 279.144C817.271 278.815 817.117 278.39 817.117 277.872V249.384C817.117 247.122 816.588 245.284 815.531 243.87C814.43 242.456 812.977 241.749 811.172 241.749C809.411 241.749 807.958 242.433 806.813 243.799C805.668 245.213 805.096 247.075 805.096 249.384V277.872C805.096 278.39 804.941 278.815 804.633 279.144C804.325 279.474 803.929 279.639 803.444 279.639H791.423C790.939 279.639 790.543 279.474 790.234 279.144C789.926 278.815 789.772 278.39 789.772 277.872V249.384C789.772 247.122 789.2 245.284 788.055 243.87C786.91 242.456 785.435 241.749 783.629 241.749C781.956 241.749 780.569 242.315 779.468 243.446C778.367 244.53 777.685 246.014 777.421 247.899V277.872C777.421 278.39 777.267 278.815 776.958 279.144C776.65 279.474 776.254 279.639 775.769 279.639H763.748C763.264 279.639 762.868 279.474 762.559 279.144C762.251 278.815 762.097 278.39 762.097 277.872V230.227C762.097 229.708 762.251 229.284 762.559 228.954C762.868 228.624 763.264 228.459 763.748 228.459H775.769C776.254 228.459 776.65 228.624 776.958 228.954C777.267 229.284 777.421 229.708 777.421 230.227V233.691C777.421 234.02 777.509 234.209 777.685 234.256C777.817 234.303 777.993 234.185 778.213 233.903C780.679 229.755 784.554 227.682 789.838 227.682C792.876 227.682 795.54 228.389 797.83 229.803C800.164 231.216 801.969 233.29 803.246 236.023C803.378 236.259 803.51 236.377 803.642 236.377C803.819 236.33 803.973 236.165 804.105 235.882C806.659 230.415 810.974 227.682 817.05 227.682ZM861.7 280.417C856.152 280.417 851.44 278.838 847.565 275.681C843.735 272.523 841.137 268.235 839.772 262.815C839.023 260.129 838.649 257.16 838.649 253.908C838.649 250.609 839.045 247.404 839.838 244.294C841.291 239.11 843.933 235.034 847.764 232.065C851.639 229.143 856.306 227.682 861.766 227.682C867.182 227.682 871.784 229.143 875.571 232.065C879.313 235.034 881.933 239.087 883.43 244.223C884.267 247.192 884.685 250.35 884.685 253.696C884.685 256.759 884.355 259.657 883.695 262.391C882.418 267.952 879.82 272.358 875.901 275.61C872.026 278.815 867.292 280.417 861.7 280.417ZM861.7 266.35C863.461 266.35 864.959 265.76 866.191 264.582C867.38 263.357 868.217 261.684 868.701 259.563C869.098 257.82 869.296 255.934 869.296 253.908C869.296 251.929 869.076 250.02 868.635 248.182C868.151 246.108 867.314 244.53 866.125 243.446C864.937 242.315 863.461 241.749 861.7 241.749C859.851 241.749 858.354 242.315 857.209 243.446C856.064 244.53 855.249 246.108 854.765 248.182C854.325 249.643 854.104 251.552 854.104 253.908C854.104 255.934 854.281 257.82 854.633 259.563C855.205 261.684 856.086 263.357 857.275 264.582C858.42 265.76 859.895 266.35 861.7 266.35ZM899.811 225.49C897.125 225.49 894.967 224.595 893.338 222.804C891.665 220.966 890.828 218.728 890.828 216.089C890.828 213.544 891.709 211.329 893.47 209.444C895.275 207.606 897.389 206.687 899.811 206.687C902.189 206.687 904.302 207.606 906.152 209.444C907.957 211.329 908.86 213.544 908.86 216.089C908.86 218.728 908.001 220.966 906.284 222.804C904.61 224.595 902.453 225.49 899.811 225.49ZM882.836 299.645C881.735 299.645 881.185 299.056 881.185 297.877V287.769C881.185 286.591 881.779 286.001 882.968 286.001C886.491 286.096 888.891 285.601 890.167 284.517C891.444 283.433 892.083 281.383 892.083 278.367V230.227C892.083 229.708 892.237 229.284 892.545 228.954C892.854 228.624 893.272 228.459 893.8 228.459H905.821C906.306 228.459 906.702 228.624 907.01 228.954C907.318 229.284 907.473 229.708 907.473 230.227V278.155C907.473 283.951 906.768 288.405 905.359 291.515C903.906 294.626 901.44 296.794 897.961 298.019C894.483 299.244 889.441 299.786 882.836 299.645ZM923.655 225.137C920.925 225.137 918.723 224.242 917.05 222.451C915.42 220.707 914.606 218.421 914.606 215.594C914.606 212.813 915.42 210.575 917.05 208.878C918.723 207.182 920.925 206.333 923.655 206.333C926.341 206.333 928.52 207.182 930.194 208.878C931.867 210.575 932.704 212.813 932.704 215.594C932.704 218.421 931.867 220.707 930.194 222.451C928.52 224.242 926.341 225.137 923.655 225.137ZM917.644 279.639C917.16 279.639 916.763 279.474 916.455 279.144C916.147 278.815 915.993 278.39 915.993 277.872V230.227C915.993 229.708 916.147 229.284 916.455 228.954C916.763 228.624 917.16 228.459 917.644 228.459H929.665C930.15 228.459 930.546 228.624 930.854 228.954C931.162 229.284 931.316 229.708 931.316 230.227V277.872C931.316 278.39 931.162 278.815 930.854 279.144C930.546 279.474 930.15 279.639 929.665 279.639H917.644ZM960.048 280.417C955.689 280.417 951.902 279.781 948.688 278.508C945.429 277.236 942.919 275.421 941.158 273.065C939.397 270.709 938.516 268.023 938.516 265.006V264.512C938.516 263.993 938.67 263.569 938.978 263.239C939.286 262.909 939.683 262.744 940.167 262.744H951.594C952.695 262.744 953.245 262.933 953.245 263.31V263.875C953.245 265.148 953.883 266.185 955.16 266.986C956.393 267.834 958.001 268.258 959.982 268.258C961.699 268.258 963.086 267.952 964.143 267.339C965.2 266.679 965.728 265.831 965.728 264.794C965.728 263.758 965.178 262.98 964.077 262.462C962.932 261.99 961.171 261.519 958.793 261.048C954.918 260.247 951.77 259.28 949.348 258.149C946.266 256.783 943.778 255.039 941.884 252.918C940.035 250.798 939.11 247.97 939.11 244.435C939.11 239.252 940.96 235.175 944.659 232.206C948.401 229.19 953.333 227.682 959.454 227.682C963.549 227.682 967.159 228.389 970.286 229.803C973.412 231.216 975.834 233.219 977.551 235.811C979.269 238.356 980.127 241.325 980.127 244.718C980.127 245.048 979.973 245.331 979.665 245.567C979.357 245.802 978.96 245.92 978.476 245.92H967.446C966.345 245.92 965.794 245.708 965.794 245.284V244.718C965.794 243.446 965.244 242.409 964.143 241.608C963.042 240.854 961.523 240.477 959.586 240.477C957.868 240.477 956.481 240.783 955.425 241.396C954.324 242.008 953.773 242.88 953.773 244.011C953.773 245.142 954.368 245.944 955.557 246.415C956.702 246.933 958.661 247.475 961.435 248.041C965.222 248.842 967.754 249.478 969.031 249.949C972.818 251.269 975.768 253.06 977.881 255.322C979.995 257.537 981.052 260.529 981.052 264.299C981.052 269.436 979.158 273.419 975.372 276.246C971.585 279.027 966.477 280.417 960.048 280.417Z" fill="white"/>
<path d="M160.77 199.676C160.419 199.458 160.001 199.398 159.608 199.509C159.215 199.62 158.879 199.893 158.675 200.269C138.684 237.045 85.8781 304.437 78.1662 312.691C67.8714 323.706 51.1231 323.709 40.8283 312.691C35.8418 307.354 33.0965 300.257 33.0965 292.709C33.0965 285.16 35.8434 278.065 40.8283 272.728C48.5647 264.448 109.458 209.622 144.719 187.287C145.069 187.065 145.322 186.704 145.423 186.282C145.524 185.861 145.464 185.413 145.257 185.039C145.05 184.665 144.713 184.394 144.319 184.286C143.925 184.178 143.507 184.242 143.157 184.463C107.699 206.926 46.4463 262.079 38.6623 270.41C33.0965 276.367 30.0322 284.286 30.0322 292.71C30.0322 301.135 33.098 309.056 38.6623 315.013C41.3969 317.942 44.6453 320.265 48.2211 321.848C51.7968 323.43 55.6294 324.241 59.4988 324.234C67.0451 324.234 74.5915 321.16 80.3352 315.013C88.369 306.414 140.794 239.692 161.325 201.919C161.529 201.543 161.585 201.095 161.481 200.675C161.377 200.254 161.121 199.895 160.77 199.676V199.676Z" fill="white"/>
<path d="M42.9284 280.065C41.0489 282.065 39.5588 284.444 38.5444 287.065C37.5301 289.685 37.0117 292.495 37.0191 295.332C37.0191 301.099 39.1176 306.519 42.9268 310.598C46.736 314.676 51.8022 316.921 57.1918 316.921C62.5799 316.921 67.6461 314.675 71.4553 310.598C79.3205 302.18 79.3189 288.484 71.4553 280.066C67.6461 275.99 62.5799 273.744 57.1918 273.744C51.8037 273.744 46.7376 275.988 42.9284 280.065V280.065ZM57.1918 313.639C54.9442 313.646 52.7177 313.175 50.6411 312.255C48.5646 311.334 46.6793 309.982 45.0943 308.276C43.5011 306.58 42.2381 304.562 41.3782 302.34C40.5183 300.118 40.0788 297.736 40.0849 295.33C40.0789 292.925 40.5187 290.542 41.3789 288.32C42.239 286.097 43.5024 284.079 45.0959 282.383C48.3256 278.926 52.6223 277.02 57.1918 277.02C61.7613 277.02 66.0565 278.925 69.2878 282.383C75.9573 289.523 75.9573 301.138 69.2878 308.275C67.7033 309.981 65.8183 311.333 63.742 312.254C61.6657 313.175 59.4393 313.646 57.1918 313.639Z" fill="white"/>
<path d="M46.1934 292.212C46.9163 292.212 47.5024 291.584 47.5024 290.811C47.5024 290.037 46.9163 289.41 46.1934 289.41C45.4704 289.41 44.8843 290.037 44.8843 290.811C44.8843 291.584 45.4704 292.212 46.1934 292.212Z" fill="white"/>
<path d="M61.4916 289.165C63.2525 289.165 64.68 287.637 64.68 285.753C64.68 283.868 63.2525 282.34 61.4916 282.34C59.7307 282.34 58.3032 283.868 58.3032 285.753C58.3032 287.637 59.7307 289.165 61.4916 289.165Z" fill="white"/>
<path d="M55.7616 306.103C58.1117 306.103 60.0169 304.064 60.0169 301.548C60.0169 299.033 58.1117 296.994 55.7616 296.994C53.4115 296.994 51.5063 299.033 51.5063 301.548C51.5063 304.064 53.4115 306.103 55.7616 306.103Z" fill="white"/>
<path d="M67.9817 301.707C69.0873 301.707 69.9836 300.748 69.9836 299.565C69.9836 298.381 69.0873 297.422 67.9817 297.422C66.876 297.422 65.9797 298.381 65.9797 299.565C65.9797 300.748 66.876 301.707 67.9817 301.707Z" fill="white"/>
<path d="M88.0181 262.338C88.1601 262.491 88.329 262.613 88.515 262.695C88.701 262.778 88.9004 262.821 89.1018 262.821C89.3033 262.821 89.5027 262.778 89.6887 262.695C89.8747 262.613 90.0436 262.491 90.1856 262.338L158.111 189.643C158.253 189.49 158.366 189.309 158.443 189.11C158.52 188.911 158.559 188.698 158.559 188.483C158.559 188.267 158.52 188.054 158.443 187.855C158.366 187.656 158.253 187.475 158.111 187.323C157.968 187.17 157.799 187.05 157.613 186.967C157.427 186.885 157.228 186.842 157.027 186.842C156.826 186.842 156.626 186.885 156.44 186.967C156.254 187.05 156.085 187.17 155.943 187.323L88.0181 260.019C87.8756 260.171 87.7626 260.352 87.6855 260.551C87.6083 260.75 87.5687 260.963 87.5687 261.178C87.5687 261.394 87.6083 261.607 87.6855 261.806C87.7626 262.005 87.8756 262.186 88.0181 262.338V262.338ZM89.4391 246.169C89.6404 246.169 89.8398 246.127 90.0258 246.044C90.2117 245.962 90.3807 245.841 90.5228 245.688L111.008 223.762C111.151 223.609 111.263 223.429 111.34 223.23C111.417 223.031 111.457 222.817 111.457 222.602C111.457 222.386 111.417 222.173 111.34 221.974C111.263 221.775 111.151 221.594 111.008 221.442C110.866 221.29 110.697 221.169 110.511 221.086C110.325 221.004 110.126 220.961 109.924 220.961C109.723 220.961 109.524 221.004 109.338 221.086C109.152 221.169 108.983 221.29 108.841 221.442L88.3553 243.368C88.1403 243.597 87.9937 243.89 87.9341 244.208C87.8746 244.527 87.9048 244.857 88.0209 245.157C88.137 245.457 88.3338 245.713 88.5863 245.894C88.8388 246.074 89.1356 246.169 89.4391 246.169V246.169ZM82.5748 251.873C82.4326 251.721 82.2637 251.6 82.0777 251.517C81.8918 251.435 81.6924 251.392 81.4911 251.392C81.2898 251.392 81.0904 251.435 80.9045 251.517C80.7185 251.6 80.5496 251.721 80.4073 251.873L68.8464 264.248C68.704 264.4 68.5911 264.581 68.5141 264.78C68.4371 264.979 68.3975 265.192 68.3975 265.408C68.3975 265.623 68.4371 265.837 68.5141 266.036C68.5911 266.235 68.704 266.415 68.8464 266.568C68.9887 266.72 69.1576 266.841 69.3436 266.923C69.5295 267.006 69.7288 267.048 69.9301 267.048C70.1314 267.048 70.3307 267.006 70.5166 266.923C70.7026 266.841 70.8715 266.72 71.0139 266.568L82.5748 254.193C82.8622 253.885 83.0236 253.468 83.0236 253.033C83.0236 252.598 82.8622 252.181 82.5748 251.873V251.873ZM136.94 223.442L109.67 252.628C109.528 252.78 109.415 252.961 109.338 253.16C109.261 253.359 109.221 253.572 109.221 253.788C109.221 254.003 109.261 254.216 109.338 254.415C109.415 254.614 109.528 254.795 109.67 254.948C109.812 255.1 109.981 255.221 110.167 255.303C110.353 255.386 110.552 255.428 110.754 255.428C110.955 255.428 111.154 255.386 111.34 255.303C111.526 255.221 111.695 255.1 111.838 254.948L139.107 225.762C139.25 225.609 139.363 225.428 139.44 225.229C139.517 225.03 139.556 224.817 139.556 224.602C139.556 224.386 139.517 224.173 139.44 223.974C139.363 223.775 139.25 223.594 139.107 223.442C138.965 223.289 138.796 223.169 138.61 223.086C138.424 223.004 138.225 222.961 138.024 222.961C137.822 222.961 137.623 223.004 137.437 223.086C137.251 223.169 137.082 223.289 136.94 223.442V223.442ZM100.812 262.112L83.8287 280.286C83.6864 280.439 83.5735 280.619 83.4965 280.818C83.4195 281.017 83.3798 281.231 83.3798 281.446C83.3798 281.662 83.4195 281.875 83.4965 282.074C83.5735 282.273 83.6864 282.454 83.8287 282.606C83.9711 282.758 84.14 282.879 84.326 282.962C84.5119 283.044 84.7112 283.087 84.9125 283.087C85.1137 283.087 85.313 283.044 85.499 282.962C85.6849 282.879 85.8539 282.758 85.9962 282.606L102.979 264.432C103.121 264.279 103.234 264.099 103.311 263.9C103.388 263.701 103.428 263.487 103.428 263.272C103.428 263.056 103.388 262.843 103.311 262.644C103.234 262.445 103.121 262.264 102.979 262.112C102.837 261.96 102.668 261.839 102.482 261.756C102.296 261.674 102.097 261.631 101.895 261.631C101.694 261.631 101.495 261.674 101.309 261.756C101.123 261.839 100.954 261.96 100.812 262.112V262.112Z" fill="white"/>
</g>
<defs>
<linearGradient id="paint0_linear" x1="0" y1="0" x2="873.916" y2="682.747" gradientUnits="userSpaceOnUse">
<stop stop-color="#B82949"/>
<stop offset="1" stop-color="#B82949" stop-opacity="0"/>
</linearGradient>
<clipPath id="clip0">
<rect width="952" height="140" fill="white" transform="translate(30 183)"/>
</clipPath>
</defs>
</svg>
